<svg xmlns="http://www.w3.org/2000/svg" viewBox="0 0 64 64" role="img" aria-label="admin ink bamboo favicon">
  <defs>
    <linearGradient id="admin-bg" x1="10" y1="8" x2="54" y2="58" gradientUnits="userSpaceOnUse">
      <stop offset="0" stop-color="#101013"/>
      <stop offset="0.55" stop-color="#050506"/>
      <stop offset="1" stop-color="#151815"/>
    </linearGradient>
    <linearGradient id="leaf" x1="8" y1="12" x2="55" y2="48" gradientUnits="userSpaceOnUse">
      <stop offset="0" stop-color="#dbece5"/>
      <stop offset="0.55" stop-color="#8fd1b4"/>
      <stop offset="1" stop-color="#4c8f76"/>
    </linearGradient>
    <filter id="rough" x="-20%" y="-20%" width="140%" height="140%">
      <feTurbulence type="fractalNoise" baseFrequency="0.9" numOctaves="2" seed="11" result="noise"/>
      <feDisplacementMap in="SourceGraphic" in2="noise" scale="0.35"/>
    </filter>
  </defs>
  <rect x="4" y="4" width="56" height="56" rx="16" fill="url(#admin-bg)"/>
  <rect x="9" y="9" width="46" height="46" rx="12" fill="none" stroke="#f2f0e8" stroke-opacity="0.16" stroke-width="1.2"/>
  <g filter="url(#rough)" stroke-linecap="round" stroke-linejoin="round">
    <path d="M31.8 54.5c-.9-11.9.2-24.2-.3-36.1-.2-4.4-.1-8.1 1-11.1" fill="none" stroke="#f7f3e9" stroke-width="4.6"/>
    <path d="M26.7 42.5c3.8-1.1 8.4-1 12.3.1" fill="none" stroke="#f7f3e9" stroke-width="1.5" opacity="0.74"/>
    <path d="M27 27.5c3.5-1 8.3-1.1 12.3 0" fill="none" stroke="#f7f3e9" stroke-width="1.5" opacity="0.74"/>
    <path d="M32.4 20.6c9-7.1 16.1-8.4 21.7-6.1-4.8 4.4-12.6 7.3-21.7 6.1Z" fill="url(#leaf)"/>
    <path d="M31.4 22.8c-8.2-5.4-15-5.8-20.5-3.1 4.5 3.7 11.6 5.9 20.5 3.1Z" fill="#9bc7b7"/>
    <path d="M32.6 35c7.8-4.2 14.3-3.7 19.5-.5-4.7 3-11.8 4.3-19.5.5Z" fill="#6ca88d"/>
  </g>
  <path d="M13 48h9v3h-9zM13 43h3v8h-3z" fill="#5fb89d" opacity="0.88"/>
</svg>
