<svg xmlns="http://www.w3.org/2000/svg" viewBox="0 0 64 64" role="img" aria-label="ink bamboo favicon">
  <defs>
    <radialGradient id="paper" cx="36%" cy="28%" r="72%">
      <stop offset="0" stop-color="#fffdf7"/>
      <stop offset="0.68" stop-color="#f3efe4"/>
      <stop offset="1" stop-color="#e4dccb"/>
    </radialGradient>
    <filter id="ink-soft" x="-20%" y="-20%" width="140%" height="140%">
      <feTurbulence type="fractalNoise" baseFrequency="0.85" numOctaves="2" seed="7" result="noise"/>
      <feDisplacementMap in="SourceGraphic" in2="noise" scale="0.45"/>
    </filter>
  </defs>
  <circle cx="32" cy="32" r="30" fill="url(#paper)"/>
  <circle cx="32" cy="32" r="28.5" fill="none" stroke="#2a2a25" stroke-opacity="0.12" stroke-width="1.2"/>
  <g filter="url(#ink-soft)" stroke-linecap="round" stroke-linejoin="round">
    <path d="M30.8 55.5C30.2 44.8 31.4 34 31 23.4 30.8 17.7 30.4 12.2 31.6 7.8" fill="none" stroke="#171814" stroke-width="4.8"/>
    <path d="M26.2 43.5c3.6-1.2 8.2-1.4 12.2-.2" fill="none" stroke="#171814" stroke-width="1.7" opacity="0.78"/>
    <path d="M26.4 28.5c3.8-1.4 8.6-1.5 12.8-.1" fill="none" stroke="#171814" stroke-width="1.7" opacity="0.78"/>
    <path d="M27.3 15.1c3.2-.9 7.3-1 10.7-.1" fill="none" stroke="#171814" stroke-width="1.5" opacity="0.65"/>
    <path d="M32.6 21.3c9.8-8.1 17.8-9.7 24-7.4-5.2 4.9-13.8 8.2-24 7.4Z" fill="#1c3b2f"/>
    <path d="M31.8 23.2c-8.9-6-16.3-6.3-22-3.5 5 4 12.9 6.2 22 3.5Z" fill="#243d34"/>
    <path d="M32.2 34.5c8.3-4.5 15.1-4.1 20.4-.9-5.1 3.3-12.4 4.9-20.4.9Z" fill="#2c4638"/>
    <path d="M31 36.8c-7.1-3.9-13.4-3.4-18.2-.2 4.3 3.1 10.9 4.4 18.2.2Z" fill="#203b31"/>
    <path d="M32.4 47.2c6.2-2.5 11.2-1.6 15 1.4-4.2 2-9.5 2-15-1.4Z" fill="#355444"/>
  </g>
</svg>
